# xmcd CD database file
#
# Track frame offsets:
#	182
#	18457
#	37632
#	54387
#	75637
#	102262
#	120262
#	140395
#
# Disc length: 2154 seconds
#
# Revision: 3
# Processed by: cddbd v1.5.2PL0 Copyright (c) Steve Scherf et al.
# Submitted via: CDex 1.50
#
DISCID=53086808
DTITLE=Albert King - King Albert
DYEAR=1989
DGENRE=Blues
TTITLE0=Love Shock
TTITLE1=You Upset Me Baby
TTITLE2=Chump Change
TTITLE3=Let Me Rock You Easy
TTITLE4=Boot Lace
TTITLE5=Love Mechanic
TTITLE6=Call My Job
TTITLE7=Good Time Charlie
EXTD=YEAR: 1989
EXTT0=
EXTT1=
EXTT2=
EXTT3=
EXTT4=
EXTT5=
EXTT6=
EXTT7=
PLAYORDER=
